<mxfile host="app.diagrams.net" modified="2023-09-29T08:02:50.517Z" agent="Mozilla/5.0 (Windows NT 10.0; Win64; x64) AppleWebKit/537.36 (KHTML, like Gecko) Chrome/117.0.0.0 Safari/537.36" etag="V8MOOIfjmAmp-d-umqJw" version="21.8.2" type="device">
  <diagram name="Page-1" id="HQbi3ZacV8eIeg5iLVu8">
    <mxGraphModel dx="2440" dy="1541" grid="1" gridSize="10" guides="1" tooltips="1" connect="1" arrows="1" fold="1" page="1" pageScale="1" pageWidth="1654" pageHeight="1169" math="0" shadow="0">
      <root>
        <mxCell id="0" />
        <mxCell id="1" parent="0" />
        <mxCell id="8w-JHZZtDKTPApVOzcfW-96" style="edgeStyle=orthogonalEdgeStyle;rounded=0;orthogonalLoop=1;jettySize=auto;html=1;" parent="1" source="8w-JHZZtDKTPApVOzcfW-1" target="8w-JHZZtDKTPApVOzcfW-14" edge="1">
          <mxGeometry relative="1" as="geometry">
            <mxPoint x="1090" y="400" as="targetPoint" />
          </mxGeometry>
        </mxCell>
        <mxCell id="8w-JHZZtDKTPApVOzcfW-97" style="edgeStyle=orthogonalEdgeStyle;rounded=0;orthogonalLoop=1;jettySize=auto;html=1;" parent="1" source="8w-JHZZtDKTPApVOzcfW-1" target="8w-JHZZtDKTPApVOzcfW-19" edge="1">
          <mxGeometry relative="1" as="geometry" />
        </mxCell>
        <mxCell id="8w-JHZZtDKTPApVOzcfW-1" value="ECF" style="rounded=0;whiteSpace=wrap;html=1;fillColor=#d5e8d4;strokeColor=#82b366;" parent="1" vertex="1">
          <mxGeometry x="960" y="275" width="120" height="60" as="geometry" />
        </mxCell>
        <mxCell id="8w-JHZZtDKTPApVOzcfW-4" value="HTML" style="rounded=0;whiteSpace=wrap;html=1;fillColor=#fff2cc;strokeColor=#d6b656;" parent="1" vertex="1">
          <mxGeometry x="40" y="280" width="120" height="60" as="geometry" />
        </mxCell>
        <mxCell id="8w-JHZZtDKTPApVOzcfW-5" value="Wordpress" style="rounded=0;whiteSpace=wrap;html=1;fillColor=#ffe6cc;strokeColor=#d79b00;" parent="1" vertex="1">
          <mxGeometry x="40" y="520" width="120" height="60" as="geometry" />
        </mxCell>
        <mxCell id="8w-JHZZtDKTPApVOzcfW-6" value="Bootstrap" style="rounded=0;whiteSpace=wrap;html=1;" parent="1" vertex="1">
          <mxGeometry x="200" y="400" width="120" height="60" as="geometry" />
        </mxCell>
        <mxCell id="8w-JHZZtDKTPApVOzcfW-13" style="edgeStyle=orthogonalEdgeStyle;rounded=0;orthogonalLoop=1;jettySize=auto;html=1;" parent="1" source="8w-JHZZtDKTPApVOzcfW-7" target="8w-JHZZtDKTPApVOzcfW-14" edge="1">
          <mxGeometry relative="1" as="geometry">
            <mxPoint x="480" y="620" as="targetPoint" />
            <Array as="points">
              <mxPoint x="740" y="450" />
            </Array>
          </mxGeometry>
        </mxCell>
        <mxCell id="8w-JHZZtDKTPApVOzcfW-7" value="PHP" style="rounded=0;whiteSpace=wrap;html=1;fillColor=#f8cecc;strokeColor=#b85450;" parent="1" vertex="1">
          <mxGeometry x="680" y="280" width="120" height="60" as="geometry" />
        </mxCell>
        <mxCell id="8w-JHZZtDKTPApVOzcfW-94" style="edgeStyle=orthogonalEdgeStyle;rounded=0;orthogonalLoop=1;jettySize=auto;html=1;" parent="1" source="8w-JHZZtDKTPApVOzcfW-8" target="8w-JHZZtDKTPApVOzcfW-6" edge="1">
          <mxGeometry relative="1" as="geometry" />
        </mxCell>
        <mxCell id="8w-JHZZtDKTPApVOzcfW-8" value="CSS" style="rounded=0;whiteSpace=wrap;html=1;fillColor=#fff2cc;strokeColor=#d6b656;" parent="1" vertex="1">
          <mxGeometry x="200" y="280" width="120" height="60" as="geometry" />
        </mxCell>
        <mxCell id="8w-JHZZtDKTPApVOzcfW-9" value="JS" style="rounded=0;whiteSpace=wrap;html=1;fillColor=#fff2cc;strokeColor=#d6b656;" parent="1" vertex="1">
          <mxGeometry x="360" y="280" width="120" height="60" as="geometry" />
        </mxCell>
        <mxCell id="8w-JHZZtDKTPApVOzcfW-14" value="Framework&lt;br&gt;SYMFONY" style="rounded=0;whiteSpace=wrap;html=1;" parent="1" vertex="1">
          <mxGeometry x="880" y="400" width="120" height="60" as="geometry" />
        </mxCell>
        <mxCell id="8w-JHZZtDKTPApVOzcfW-93" style="edgeStyle=orthogonalEdgeStyle;rounded=0;orthogonalLoop=1;jettySize=auto;html=1;" parent="1" source="8w-JHZZtDKTPApVOzcfW-15" target="8w-JHZZtDKTPApVOzcfW-19" edge="1">
          <mxGeometry relative="1" as="geometry">
            <Array as="points">
              <mxPoint x="580" y="540" />
            </Array>
          </mxGeometry>
        </mxCell>
        <mxCell id="8w-JHZZtDKTPApVOzcfW-15" value="BDD" style="rounded=0;whiteSpace=wrap;html=1;strokeColor=#b85450;fillColor=#f8cecc;" parent="1" vertex="1">
          <mxGeometry x="520" y="280" width="120" height="60" as="geometry" />
        </mxCell>
        <mxCell id="8w-JHZZtDKTPApVOzcfW-16" value="React" style="rounded=0;whiteSpace=wrap;html=1;fillColor=#ffe6cc;strokeColor=#d79b00;" parent="1" vertex="1">
          <mxGeometry x="200" y="520" width="120" height="60" as="geometry" />
        </mxCell>
        <mxCell id="8w-JHZZtDKTPApVOzcfW-19" value="Mysql" style="rounded=0;whiteSpace=wrap;html=1;" parent="1" vertex="1">
          <mxGeometry x="1040" y="400" width="120" height="60" as="geometry" />
        </mxCell>
        <mxCell id="8w-JHZZtDKTPApVOzcfW-20" value="&lt;font style=&quot;font-size: 40px;&quot;&gt;Planning&lt;/font&gt;" style="rounded=0;whiteSpace=wrap;html=1;" parent="1" vertex="1">
          <mxGeometry x="2100" y="50" width="810" height="60" as="geometry" />
        </mxCell>
        <mxCell id="8w-JHZZtDKTPApVOzcfW-98" value="" style="edgeStyle=orthogonalEdgeStyle;rounded=0;orthogonalLoop=1;jettySize=auto;html=1;" parent="1" source="8w-JHZZtDKTPApVOzcfW-21" target="8w-JHZZtDKTPApVOzcfW-23" edge="1">
          <mxGeometry relative="1" as="geometry" />
        </mxCell>
        <mxCell id="8w-JHZZtDKTPApVOzcfW-21" value="Compréhension&amp;nbsp;&lt;br&gt;de l&#39;ECF" style="rounded=0;whiteSpace=wrap;html=1;" parent="1" vertex="1">
          <mxGeometry x="2310" y="200" width="120" height="60" as="geometry" />
        </mxCell>
        <mxCell id="8w-JHZZtDKTPApVOzcfW-22" value="Trello" style="rounded=0;whiteSpace=wrap;html=1;" parent="1" vertex="1">
          <mxGeometry x="2310" y="280" width="120" height="60" as="geometry" />
        </mxCell>
        <mxCell id="8w-JHZZtDKTPApVOzcfW-28" value="" style="edgeStyle=orthogonalEdgeStyle;rounded=0;orthogonalLoop=1;jettySize=auto;html=1;" parent="1" source="8w-JHZZtDKTPApVOzcfW-23" target="8w-JHZZtDKTPApVOzcfW-27" edge="1">
          <mxGeometry relative="1" as="geometry" />
        </mxCell>
        <mxCell id="8w-JHZZtDKTPApVOzcfW-99" value="" style="edgeStyle=orthogonalEdgeStyle;rounded=0;orthogonalLoop=1;jettySize=auto;html=1;" parent="1" source="8w-JHZZtDKTPApVOzcfW-23" target="8w-JHZZtDKTPApVOzcfW-29" edge="1">
          <mxGeometry relative="1" as="geometry" />
        </mxCell>
        <mxCell id="8w-JHZZtDKTPApVOzcfW-23" value="Diagramme&lt;br&gt;de classe" style="rounded=0;whiteSpace=wrap;html=1;" parent="1" vertex="1">
          <mxGeometry x="2310" y="370" width="120" height="60" as="geometry" />
        </mxCell>
        <mxCell id="8w-JHZZtDKTPApVOzcfW-24" value="GIT" style="rounded=0;whiteSpace=wrap;html=1;fillColor=#f5f5f5;fontColor=#333333;strokeColor=#666666;" parent="1" vertex="1">
          <mxGeometry x="40" y="640" width="120" height="60" as="geometry" />
        </mxCell>
        <mxCell id="8w-JHZZtDKTPApVOzcfW-25" value="Diagramme&lt;br&gt;de séquence" style="rounded=0;whiteSpace=wrap;html=1;" parent="1" vertex="1">
          <mxGeometry x="2470" y="370" width="120" height="60" as="geometry" />
        </mxCell>
        <mxCell id="8w-JHZZtDKTPApVOzcfW-26" value="Diagramme&lt;br&gt;cas d&#39;utilisation" style="rounded=0;whiteSpace=wrap;html=1;" parent="1" vertex="1">
          <mxGeometry x="2630" y="370" width="120" height="60" as="geometry" />
        </mxCell>
        <mxCell id="8w-JHZZtDKTPApVOzcfW-27" value="Créer la BDD" style="whiteSpace=wrap;html=1;rounded=0;" parent="1" vertex="1">
          <mxGeometry x="2110" y="370" width="120" height="60" as="geometry" />
        </mxCell>
        <mxCell id="8w-JHZZtDKTPApVOzcfW-32" value="" style="edgeStyle=orthogonalEdgeStyle;rounded=0;orthogonalLoop=1;jettySize=auto;html=1;" parent="1" source="8w-JHZZtDKTPApVOzcfW-29" target="8w-JHZZtDKTPApVOzcfW-31" edge="1">
          <mxGeometry relative="1" as="geometry" />
        </mxCell>
        <mxCell id="8w-JHZZtDKTPApVOzcfW-34" value="" style="edgeStyle=orthogonalEdgeStyle;rounded=0;orthogonalLoop=1;jettySize=auto;html=1;" parent="1" source="8w-JHZZtDKTPApVOzcfW-29" target="8w-JHZZtDKTPApVOzcfW-33" edge="1">
          <mxGeometry relative="1" as="geometry" />
        </mxCell>
        <mxCell id="8w-JHZZtDKTPApVOzcfW-29" value="Maquettage&lt;br&gt;du site" style="rounded=0;whiteSpace=wrap;html=1;" parent="1" vertex="1">
          <mxGeometry x="2310" y="480" width="120" height="60" as="geometry" />
        </mxCell>
        <mxCell id="8w-JHZZtDKTPApVOzcfW-31" value="Page admin&amp;nbsp;&lt;br&gt;option" style="whiteSpace=wrap;html=1;rounded=0;" parent="1" vertex="1">
          <mxGeometry x="2110" y="480" width="120" height="60" as="geometry" />
        </mxCell>
        <mxCell id="8w-JHZZtDKTPApVOzcfW-36" value="" style="edgeStyle=orthogonalEdgeStyle;rounded=0;orthogonalLoop=1;jettySize=auto;html=1;" parent="1" source="8w-JHZZtDKTPApVOzcfW-33" target="8w-JHZZtDKTPApVOzcfW-35" edge="1">
          <mxGeometry relative="1" as="geometry" />
        </mxCell>
        <mxCell id="8w-JHZZtDKTPApVOzcfW-33" value="Site statiques" style="rounded=0;whiteSpace=wrap;html=1;" parent="1" vertex="1">
          <mxGeometry x="2310" y="620" width="120" height="60" as="geometry" />
        </mxCell>
        <mxCell id="8w-JHZZtDKTPApVOzcfW-41" value="" style="edgeStyle=orthogonalEdgeStyle;rounded=0;orthogonalLoop=1;jettySize=auto;html=1;" parent="1" source="8w-JHZZtDKTPApVOzcfW-35" target="8w-JHZZtDKTPApVOzcfW-40" edge="1">
          <mxGeometry relative="1" as="geometry" />
        </mxCell>
        <mxCell id="8w-JHZZtDKTPApVOzcfW-35" value="Créer la bdd" style="rounded=0;whiteSpace=wrap;html=1;" parent="1" vertex="1">
          <mxGeometry x="2310" y="760" width="120" height="60" as="geometry" />
        </mxCell>
        <mxCell id="8w-JHZZtDKTPApVOzcfW-37" value="Symfony&lt;br&gt;Twig" style="rounded=0;whiteSpace=wrap;html=1;" parent="1" vertex="1">
          <mxGeometry x="1980" y="760" width="120" height="60" as="geometry" />
        </mxCell>
        <mxCell id="8w-JHZZtDKTPApVOzcfW-39" value="HTM / CSS / BS" style="rounded=0;whiteSpace=wrap;html=1;" parent="1" vertex="1">
          <mxGeometry x="2080" y="630" width="120" height="60" as="geometry" />
        </mxCell>
        <mxCell id="8w-JHZZtDKTPApVOzcfW-43" value="" style="edgeStyle=orthogonalEdgeStyle;rounded=0;orthogonalLoop=1;jettySize=auto;html=1;" parent="1" source="8w-JHZZtDKTPApVOzcfW-40" target="8w-JHZZtDKTPApVOzcfW-42" edge="1">
          <mxGeometry relative="1" as="geometry" />
        </mxCell>
        <mxCell id="8w-JHZZtDKTPApVOzcfW-40" value="CRUD" style="rounded=0;whiteSpace=wrap;html=1;" parent="1" vertex="1">
          <mxGeometry x="2310" y="900" width="120" height="60" as="geometry" />
        </mxCell>
        <mxCell id="8w-JHZZtDKTPApVOzcfW-45" value="" style="edgeStyle=orthogonalEdgeStyle;rounded=0;orthogonalLoop=1;jettySize=auto;html=1;" parent="1" source="8w-JHZZtDKTPApVOzcfW-42" target="8w-JHZZtDKTPApVOzcfW-44" edge="1">
          <mxGeometry relative="1" as="geometry" />
        </mxCell>
        <mxCell id="8w-JHZZtDKTPApVOzcfW-42" value="Liaison des données" style="rounded=0;whiteSpace=wrap;html=1;" parent="1" vertex="1">
          <mxGeometry x="2310" y="1040" width="120" height="60" as="geometry" />
        </mxCell>
        <mxCell id="8w-JHZZtDKTPApVOzcfW-48" value="" style="edgeStyle=orthogonalEdgeStyle;rounded=0;orthogonalLoop=1;jettySize=auto;html=1;" parent="1" source="8w-JHZZtDKTPApVOzcfW-44" target="8w-JHZZtDKTPApVOzcfW-47" edge="1">
          <mxGeometry relative="1" as="geometry" />
        </mxCell>
        <mxCell id="8w-JHZZtDKTPApVOzcfW-44" value="Dynamiser le site avec JS" style="rounded=0;whiteSpace=wrap;html=1;" parent="1" vertex="1">
          <mxGeometry x="2310" y="1190" width="120" height="60" as="geometry" />
        </mxCell>
        <mxCell id="8w-JHZZtDKTPApVOzcfW-46" value="JS" style="rounded=0;whiteSpace=wrap;html=1;" parent="1" vertex="1">
          <mxGeometry x="1970" y="1190" width="120" height="60" as="geometry" />
        </mxCell>
        <mxCell id="8w-JHZZtDKTPApVOzcfW-47" value="Déploiement&lt;br&gt;(mise en ligne)" style="rounded=0;whiteSpace=wrap;html=1;" parent="1" vertex="1">
          <mxGeometry x="2310" y="1330" width="120" height="60" as="geometry" />
        </mxCell>
        <mxCell id="8w-JHZZtDKTPApVOzcfW-49" value="Avec un hébergeur" style="rounded=0;whiteSpace=wrap;html=1;" parent="1" vertex="1">
          <mxGeometry x="1970" y="1330" width="120" height="60" as="geometry" />
        </mxCell>
        <mxCell id="8w-JHZZtDKTPApVOzcfW-50" value="GIT" style="rounded=0;whiteSpace=wrap;html=1;" parent="1" vertex="1">
          <mxGeometry x="1950" y="630" width="120" height="60" as="geometry" />
        </mxCell>
        <mxCell id="8w-JHZZtDKTPApVOzcfW-51" value="Mysql&lt;br&gt;(phpmyadmin)" style="rounded=0;whiteSpace=wrap;html=1;" parent="1" vertex="1">
          <mxGeometry x="2130" y="760" width="120" height="60" as="geometry" />
        </mxCell>
        <mxCell id="8w-JHZZtDKTPApVOzcfW-52" value="&lt;font style=&quot;font-size: 40px;&quot;&gt;Compréhension &amp;gt; fonctionnalités&lt;/font&gt;" style="rounded=0;whiteSpace=wrap;html=1;" parent="1" vertex="1">
          <mxGeometry x="3770" y="90" width="810" height="60" as="geometry" />
        </mxCell>
        <mxCell id="8w-JHZZtDKTPApVOzcfW-55" value="" style="edgeStyle=orthogonalEdgeStyle;rounded=0;orthogonalLoop=1;jettySize=auto;html=1;" parent="1" source="8w-JHZZtDKTPApVOzcfW-53" target="8w-JHZZtDKTPApVOzcfW-54" edge="1">
          <mxGeometry relative="1" as="geometry" />
        </mxCell>
        <mxCell id="8w-JHZZtDKTPApVOzcfW-53" value="Site vitrine" style="rounded=0;whiteSpace=wrap;html=1;" parent="1" vertex="1">
          <mxGeometry x="3890" y="240" width="120" height="60" as="geometry" />
        </mxCell>
        <mxCell id="8w-JHZZtDKTPApVOzcfW-54" value="Article = Voiture" style="rounded=0;whiteSpace=wrap;html=1;" parent="1" vertex="1">
          <mxGeometry x="4230" y="470" width="120" height="60" as="geometry" />
        </mxCell>
        <mxCell id="8w-JHZZtDKTPApVOzcfW-56" value="Horaire" style="rounded=0;whiteSpace=wrap;html=1;" parent="1" vertex="1">
          <mxGeometry x="4115" y="380" width="120" height="60" as="geometry" />
        </mxCell>
        <mxCell id="8w-JHZZtDKTPApVOzcfW-57" value="Service" style="rounded=0;whiteSpace=wrap;html=1;" parent="1" vertex="1">
          <mxGeometry x="3810" y="380" width="120" height="60" as="geometry" />
        </mxCell>
        <mxCell id="8w-JHZZtDKTPApVOzcfW-58" value="Formulaire de contact" style="rounded=0;whiteSpace=wrap;html=1;" parent="1" vertex="1">
          <mxGeometry x="4230" y="810" width="120" height="60" as="geometry" />
        </mxCell>
        <mxCell id="8w-JHZZtDKTPApVOzcfW-59" value="Témoignage" style="rounded=0;whiteSpace=wrap;html=1;" parent="1" vertex="1">
          <mxGeometry x="3960" y="380" width="120" height="60" as="geometry" />
        </mxCell>
        <mxCell id="8w-JHZZtDKTPApVOzcfW-60" value="VISITEURS" style="rounded=0;whiteSpace=wrap;html=1;" parent="1" vertex="1">
          <mxGeometry x="3510" y="430" width="120" height="60" as="geometry" />
        </mxCell>
        <mxCell id="8w-JHZZtDKTPApVOzcfW-61" value="" style="shape=curlyBracket;whiteSpace=wrap;html=1;rounded=1;labelPosition=left;verticalLabelPosition=middle;align=right;verticalAlign=middle;" parent="1" vertex="1">
          <mxGeometry x="3640" y="340" width="20" height="560" as="geometry" />
        </mxCell>
        <mxCell id="8w-JHZZtDKTPApVOzcfW-62" value="Présentation du garage = accueil" style="rounded=0;whiteSpace=wrap;html=1;" parent="1" vertex="1">
          <mxGeometry x="3670" y="380" width="120" height="60" as="geometry" />
        </mxCell>
        <mxCell id="8w-JHZZtDKTPApVOzcfW-65" value="" style="shape=curlyBracket;whiteSpace=wrap;html=1;rounded=1;flipH=1;labelPosition=right;verticalLabelPosition=middle;align=left;verticalAlign=middle;" parent="1" vertex="1">
          <mxGeometry x="4430" y="340" width="20" height="560" as="geometry" />
        </mxCell>
        <mxCell id="8w-JHZZtDKTPApVOzcfW-66" value="Page home" style="rounded=0;whiteSpace=wrap;html=1;" parent="1" vertex="1">
          <mxGeometry x="4490" y="380" width="120" height="60" as="geometry" />
        </mxCell>
        <mxCell id="8w-JHZZtDKTPApVOzcfW-67" value="&lt;font style=&quot;font-size: 40px;&quot;&gt;QUI&lt;/font&gt;" style="text;strokeColor=none;align=center;fillColor=none;html=1;verticalAlign=middle;whiteSpace=wrap;rounded=0;" parent="1" vertex="1">
          <mxGeometry x="3530" y="310" width="60" height="30" as="geometry" />
        </mxCell>
        <mxCell id="8w-JHZZtDKTPApVOzcfW-68" value="&lt;font style=&quot;font-size: 40px;&quot;&gt;Où&amp;nbsp;&lt;br&gt;quelle page&lt;br&gt;&lt;/font&gt;" style="text;strokeColor=none;align=center;fillColor=none;html=1;verticalAlign=middle;whiteSpace=wrap;rounded=0;" parent="1" vertex="1">
          <mxGeometry x="4440" y="280" width="230" height="30" as="geometry" />
        </mxCell>
        <mxCell id="8w-JHZZtDKTPApVOzcfW-69" value="Page Occasions" style="rounded=0;whiteSpace=wrap;html=1;" parent="1" vertex="1">
          <mxGeometry x="4490" y="500" width="120" height="60" as="geometry" />
        </mxCell>
        <mxCell id="8w-JHZZtDKTPApVOzcfW-70" value="Page contact" style="rounded=0;whiteSpace=wrap;html=1;" parent="1" vertex="1">
          <mxGeometry x="4490" y="810" width="120" height="60" as="geometry" />
        </mxCell>
        <mxCell id="8w-JHZZtDKTPApVOzcfW-71" value="Liste des voitures" style="rounded=0;whiteSpace=wrap;html=1;" parent="1" vertex="1">
          <mxGeometry x="4290" y="530" width="120" height="60" as="geometry" />
        </mxCell>
        <mxCell id="8w-JHZZtDKTPApVOzcfW-72" value="Filtrer" style="rounded=0;whiteSpace=wrap;html=1;" parent="1" vertex="1">
          <mxGeometry x="4290" y="590" width="120" height="60" as="geometry" />
        </mxCell>
        <mxCell id="8w-JHZZtDKTPApVOzcfW-73" value="Détail de la voiture" style="rounded=0;whiteSpace=wrap;html=1;" parent="1" vertex="1">
          <mxGeometry x="4290" y="650" width="120" height="60" as="geometry" />
        </mxCell>
        <mxCell id="8w-JHZZtDKTPApVOzcfW-74" value="Article = Voiture" style="rounded=0;whiteSpace=wrap;html=1;" parent="1" vertex="1">
          <mxGeometry x="3860" y="1390" width="120" height="60" as="geometry" />
        </mxCell>
        <mxCell id="8w-JHZZtDKTPApVOzcfW-75" value="Horaire" style="rounded=0;whiteSpace=wrap;html=1;" parent="1" vertex="1">
          <mxGeometry x="4160" y="1000" width="120" height="60" as="geometry" />
        </mxCell>
        <mxCell id="8w-JHZZtDKTPApVOzcfW-76" value="Service" style="rounded=0;whiteSpace=wrap;html=1;" parent="1" vertex="1">
          <mxGeometry x="3998" y="1000" width="120" height="60" as="geometry" />
        </mxCell>
        <mxCell id="8w-JHZZtDKTPApVOzcfW-77" value="Formulaire de contact" style="rounded=0;whiteSpace=wrap;html=1;" parent="1" vertex="1">
          <mxGeometry x="4235" y="1390" width="120" height="60" as="geometry" />
        </mxCell>
        <mxCell id="8w-JHZZtDKTPApVOzcfW-78" value="Témoignage" style="rounded=0;whiteSpace=wrap;html=1;" parent="1" vertex="1">
          <mxGeometry x="4010" y="1390" width="120" height="60" as="geometry" />
        </mxCell>
        <mxCell id="8w-JHZZtDKTPApVOzcfW-79" value="ADMIN" style="rounded=0;whiteSpace=wrap;html=1;" parent="1" vertex="1">
          <mxGeometry x="3500" y="1045" width="120" height="60" as="geometry" />
        </mxCell>
        <mxCell id="8w-JHZZtDKTPApVOzcfW-80" value="Connexion" style="rounded=0;whiteSpace=wrap;html=1;" parent="1" vertex="1">
          <mxGeometry x="3690" y="1000" width="120" height="60" as="geometry" />
        </mxCell>
        <mxCell id="8w-JHZZtDKTPApVOzcfW-81" value="Page home" style="rounded=0;whiteSpace=wrap;html=1;" parent="1" vertex="1">
          <mxGeometry x="4480" y="995" width="120" height="60" as="geometry" />
        </mxCell>
        <mxCell id="8w-JHZZtDKTPApVOzcfW-82" value="Page Occasions" style="rounded=0;whiteSpace=wrap;html=1;" parent="1" vertex="1">
          <mxGeometry x="4480" y="1115" width="120" height="60" as="geometry" />
        </mxCell>
        <mxCell id="8w-JHZZtDKTPApVOzcfW-83" value="Page contact" style="rounded=0;whiteSpace=wrap;html=1;" parent="1" vertex="1">
          <mxGeometry x="4480" y="1425" width="120" height="60" as="geometry" />
        </mxCell>
        <mxCell id="8w-JHZZtDKTPApVOzcfW-87" value="" style="shape=curlyBracket;whiteSpace=wrap;html=1;rounded=1;labelPosition=left;verticalLabelPosition=middle;align=right;verticalAlign=middle;" parent="1" vertex="1">
          <mxGeometry x="3640" y="980" width="20" height="560" as="geometry" />
        </mxCell>
        <mxCell id="8w-JHZZtDKTPApVOzcfW-88" value="" style="shape=curlyBracket;whiteSpace=wrap;html=1;rounded=1;flipH=1;labelPosition=right;verticalLabelPosition=middle;align=left;verticalAlign=middle;" parent="1" vertex="1">
          <mxGeometry x="4430" y="980" width="20" height="560" as="geometry" />
        </mxCell>
        <mxCell id="8w-JHZZtDKTPApVOzcfW-89" value="USERS" style="rounded=0;whiteSpace=wrap;html=1;" parent="1" vertex="1">
          <mxGeometry x="3500" y="1390" width="120" height="60" as="geometry" />
        </mxCell>
        <mxCell id="8w-JHZZtDKTPApVOzcfW-90" value="Création de compte" style="rounded=0;whiteSpace=wrap;html=1;" parent="1" vertex="1">
          <mxGeometry x="3850" y="1000" width="120" height="60" as="geometry" />
        </mxCell>
        <mxCell id="8w-JHZZtDKTPApVOzcfW-91" value="Connexion" style="rounded=0;whiteSpace=wrap;html=1;" parent="1" vertex="1">
          <mxGeometry x="3690" y="1390" width="120" height="60" as="geometry" />
        </mxCell>
        <mxCell id="8w-JHZZtDKTPApVOzcfW-92" value="&lt;font style=&quot;&quot;&gt;&lt;font style=&quot;font-size: 40px;&quot;&gt;COURS&lt;/font&gt;&lt;br&gt;&lt;/font&gt;" style="rounded=0;whiteSpace=wrap;html=1;" parent="1" vertex="1">
          <mxGeometry x="130" y="60" width="810" height="60" as="geometry" />
        </mxCell>
        <mxCell id="8w-JHZZtDKTPApVOzcfW-95" value="" style="shape=curlyBracket;whiteSpace=wrap;html=1;rounded=1;flipH=1;labelPosition=right;verticalLabelPosition=middle;align=left;verticalAlign=middle;" parent="1" vertex="1">
          <mxGeometry x="840" y="280" width="20" height="120" as="geometry" />
        </mxCell>
        <mxCell id="8w-JHZZtDKTPApVOzcfW-100" value="" style="shape=curlyBracket;whiteSpace=wrap;html=1;rounded=1;labelPosition=left;verticalLabelPosition=middle;align=right;verticalAlign=middle;" parent="1" vertex="1">
          <mxGeometry x="1900" y="280" width="20" height="560" as="geometry" />
        </mxCell>
        <mxCell id="8w-JHZZtDKTPApVOzcfW-102" value="1 - Maquetter" style="shape=ext;double=1;rounded=1;whiteSpace=wrap;html=1;" parent="1" vertex="1">
          <mxGeometry x="1720" y="440" width="120" height="80" as="geometry" />
        </mxCell>
        <mxCell id="8w-JHZZtDKTPApVOzcfW-103" value="&lt;font style=&quot;font-size: 30px;&quot;&gt;Compétences&lt;/font&gt;" style="text;strokeColor=none;align=center;fillColor=none;html=1;verticalAlign=middle;whiteSpace=wrap;rounded=0;" parent="1" vertex="1">
          <mxGeometry x="1760" y="245" width="60" height="30" as="geometry" />
        </mxCell>
        <mxCell id="8w-JHZZtDKTPApVOzcfW-104" value="2&amp;nbsp; -&amp;nbsp;" style="shape=ext;double=1;rounded=1;whiteSpace=wrap;html=1;" parent="1" vertex="1">
          <mxGeometry x="1720" y="600" width="120" height="80" as="geometry" />
        </mxCell>
        <mxCell id="vNtI_-nZQP0ANpb-qeg6-1" value="5&amp;nbsp; -&amp;nbsp;" style="shape=ext;double=1;rounded=1;whiteSpace=wrap;html=1;" vertex="1" parent="1">
          <mxGeometry x="1720" y="750" width="120" height="80" as="geometry" />
        </mxCell>
        <mxCell id="vNtI_-nZQP0ANpb-qeg6-2" value="3&amp;nbsp; -&amp;nbsp;" style="shape=ext;double=1;rounded=1;whiteSpace=wrap;html=1;" vertex="1" parent="1">
          <mxGeometry x="1720" y="1175" width="120" height="80" as="geometry" />
        </mxCell>
      </root>
    </mxGraphModel>
  </diagram>
</mxfile>
